<?xml version="1.0" encoding="utf-8"?>
<!-- Generator: Adobe Illustrator 22.1.0, SVG Export Plug-In . SVG Version: 6.00 Build 0)  -->
<svg version="1.1" id="Слой_1" xmlns="http://www.w3.org/2000/svg" xmlns:xlink="http://www.w3.org/1999/xlink" x="0px" y="0px"
	 viewBox="0 0 526 173" style="enable-background:new 0 0 526 173;" xml:space="preserve">
<style type="text/css">
	.st0{fill:#13A89E;}
	.st1{fill:#D1D2D4;}
	.st2{fill:url(#SVGID_1_);}
	.st3{fill:#13A79D;}
	.st4{fill:#4C938D;}
	.st5{fill:#4B948E;}
</style>
<g>
	<g>
		<path class="st0" d="M424.7,53.9c1.8,1.7,3.7,3,5.2,4.7c3.9,4.3,5.5,9.5,5.4,15.2c-0.1,6.6-1.5,12.9-4.6,18.8
			c-4.7,9-12,14.9-21.3,18.5c-4.4,1.7-8.9,2.6-13.6,2.6c-7.6,0.1-15.3,0.1-22.9,0.2c-0.4,0-0.8-0.1-1.3-0.1c0.2-0.8,0.3-1.5,0.4-2.2
			c0.8-3.6,1.6-7.1,2.3-10.7c0.2-1,0.7-1.3,1.6-1.3c6.7,0,13.4,0.1,20,0c4.5,0,8.8-0.9,12.8-3.1c6.4-3.7,9.8-9.3,10.7-16.5
			c0.2-1.9,0.3-3.9,0.1-5.8c-0.5-4.4-3-7.4-7-9.2c-2.9-1.3-5.9-1.9-9-1.9c-6.5-0.1-13,0-19.6,0c-0.5,0-0.9,0-1.6-0.1
			c0.3-1.6,0.6-3.1,0.9-4.6c0.5-2.7,1.1-5.4,1.6-8.1c0.2-1,0.6-1.5,1.7-1.4c5.6,0.1,11.2,0.1,16.8,0c5.3,0,10.2-1.4,14.4-4.9
			c4.2-3.5,6.5-8.1,7.1-13.4c0.2-1.9,0.2-3.9,0-5.8c-0.5-3.5-2.5-6.2-5.6-7.9c-3.9-2.2-8.2-2.8-12.5-2.6c-7.2,0.3-13.2,3.1-18,8.5
			c-3.7,4.2-5.6,9.2-6.8,14.6c-4.7,22.5-9.5,44.9-14.3,67.3c-0.6,2.7-1.2,5.5-1.7,8.2c-0.1,0.7-0.5,1-1.2,1c-4.3,0-8.6,0-13,0
			c-1,0-1.1-0.5-0.9-1.3c2.1-9.9,4.2-19.9,6.3-29.8c3.5-16.5,7-33.1,10.6-49.6c1.3-6.1,4.2-11.5,8.2-16.2
			c6.6-7.9,14.6-13.7,24.8-15.9c9-2,17.9-1.4,26.4,2.3c10.7,4.6,15,14.2,13.2,25.1c-0.5,3.1-1.4,6.1-2.4,9c-2,6.3-6,11.1-11.4,14.8
			C426,52.9,425.4,53.4,424.7,53.9z"/>
		<path class="st0" d="M305.3,2c-0.2,1.1-0.4,2.1-0.6,3c-5.1,24.1-10.2,48.2-15.3,72.3c-0.8,3.9-1,7.9-0.2,11.8
			c1.3,6.9,5.7,11.1,12.6,12.1c9.3,1.4,17-1.7,23.3-8.5c4.5-4.9,7.1-10.6,8.5-17.1c4.6-22,9.3-44,13.9-66c0.4-2.1,0.9-4.2,1.3-6.3
			c0.2-1,0.6-1.5,1.7-1.5c4.1,0.1,8.2,0,12.2,0c1.5,0,1.5,0.1,1.2,1.5c-2.4,11.4-4.8,22.8-7.3,34.1c-2.9,13.4-5.5,26.9-8.6,40.2
			c-4.1,17.3-14.8,29-31.3,35.2c-8.7,3.3-17.8,3.8-26.6,0.3c-10.2-4.1-15.7-11.9-16.8-22.9c-0.6-5.4,0.4-10.7,1.5-15.9
			c5-23.6,10.1-47.2,15.1-70.9c0.3-1.3,0.7-1.8,2.1-1.7c3.9,0.1,7.8,0,11.8,0C304.2,1.9,304.7,2,305.3,2z"/>
		<path class="st0" d="M462.1,48.7c18.1,0,36,0,54.2,0c-0.3,1.7-0.6,3.2-1,4.6c-0.6,2.7-1.2,5.5-1.7,8.2c-0.2,1.2-0.7,1.6-2,1.6
			c-16.8,0-33.7,0-50.5,0c-0.4,0-0.9-0.1-1.3,0c-0.4,0.1-0.8,0.5-0.9,0.8c-0.7,6.4-0.1,12.7,2.7,18.5c4.9,10.6,13.3,16.4,25,17
			c5.7,0.3,11.5,0.2,17.3,0.2c0.4,0,0.9,0,1.4,0.1c0,0.4,0,0.8-0.1,1.1c-0.8,3.9-1.7,7.9-2.5,11.8c-0.2,0.9-0.6,1.2-1.5,1.2
			c-6.3-0.2-12.6,0-18.8-0.5c-18.5-1.7-35.4-15.3-38.7-34c-1.5-8.4-0.8-16.7,1.6-24.9c3.4-11.6,9-22,17.5-30.6
			c9.3-9.4,20.5-15.5,33.1-19.1c6.8-2,13.8-3,20.9-2.9c2.7,0.1,5.4,0,8,0c1,0,1.5,0.2,1.2,1.4c-0.9,3.9-1.7,7.8-2.5,11.7
			c-0.2,0.9-0.6,1.2-1.5,1.2c-3.8,0-7.6,0-11.4,0c-13.1,0.1-24.6,4.4-34.6,12.8c-5.9,5-10.7,10.9-13.4,18.3
			C462.4,47.6,462.3,48.1,462.1,48.7z"/>
		<path class="st0" d="M279.2,2.1c-0.3,1.5-0.6,2.8-0.8,4.1c-0.6,2.9-1.3,5.7-1.8,8.6c-0.2,1.1-0.7,1.5-1.8,1.5
			c-3.7-0.1-7.4-0.1-11,0c-19.8,0.3-34.5,9.4-44.7,26.1c-4.1,6.8-6.4,14.3-7.2,22.2c-0.5,5.5-0.2,11,1.7,16.3
			c3.6,10,11,15.7,21.2,17.8c3.8,0.8,7.7,1,11.5,1.2c3.5,0.2,7,0,10.6,0c0.5,0,0.9,0,1.6,0.1c-0.2,1.1-0.4,2-0.6,3
			c-0.7,3.3-1.5,6.6-2.1,9.9c-0.2,1-0.7,1.3-1.6,1.3c-6-0.1-12.1,0.1-18.1-0.3c-9.7-0.5-18.7-3.4-26.2-9.9
			c-7.6-6.5-12.1-14.7-13.7-24.5c-2-11.8-0.1-23.1,4.7-34c5.4-12.3,14.2-21.7,25-29.4c8.2-5.9,17-10.5,27-12.6c3.9-0.8,8-1.2,12-1.4
			c4.2-0.2,8.5-0.1,12.7,0C278,1.9,278.5,2,279.2,2.1z"/>
		<path d="M400.9,163.7c-0.4,1.8-0.8,3.6-1.2,5.3c-0.1,0.2-0.2,0.4-0.4,0.6c-4.4,3-11.1,3.3-15-0.5c-2.8-2.7-3.6-6-3.1-9.7
			c0.8-6.4,4.1-11.3,10.1-14c3.5-1.6,7.1-1.8,10.8-1c5.6,1.1,8.6,5.9,7.4,11.7c-1,4.7-2,9.4-3,14.1c-0.2,0.9-0.6,1.2-1.5,1.2
			c-1.3,0-2.5,0-4,0c0.2-1.2,0.4-2.2,0.6-3.2c0.8-4,1.7-8,2.5-12.1c0.7-3.8-1.5-6.6-5.3-7c-7.8-1-13.2,5.5-12.4,12.5
			c0.3,2.8,2.7,5.1,5.5,5.4c2.9,0.4,5.3-0.6,7.5-2.4c0.4-0.3,0.8-0.7,1.2-1C400.7,163.6,400.8,163.7,400.9,163.7z"/>
		<path d="M446.7,171.7c0.4-2.1,0.9-4.1,1.2-6c0.2-1.2,0.4-2.4,0.4-3.6c0-1.5-0.8-2.3-2.3-2.5c-1.8-0.1-3.7-0.1-5.5-0.2
			c-0.8,0-0.9,0.5-1,1.1c-0.7,3.3-1.4,6.6-2.1,10c-0.2,0.9-0.5,1.3-1.5,1.2c-1.3-0.1-2.5,0-4,0c0.3-1.4,0.5-2.7,0.8-3.9
			c2.4-11.2,4.8-22.5,7.2-33.7c0.2-1.1,0.7-1.5,1.8-1.4c1.1,0.1,2.3,0,3.7,0c-1.6,7.4-3.1,14.6-4.7,22c2.4,0.2,4.6,0,6.2-2
			c1.9-2.3,3.7-4.6,5.5-6.9c0.5-0.7,1.1-1,1.9-0.9c1.5,0.1,2.9,0,4.4,0c0.1,0.1,0.1,0.2,0.2,0.4c-3,3.6-6.1,7.1-9.1,10.7
			c0,0,0.2,0.1,0.5,0.2c2.6,1.1,3.9,3.3,3.5,6c-0.5,2.9-1.2,5.8-1.8,8.7c-0.1,0.3-0.5,0.7-0.7,0.8
			C449.8,171.7,448.3,171.7,446.7,171.7z"/>
		<path d="M347.5,171.4c2.4-11.4,4.8-22.7,7.2-34.1c-3.3,0-6.3,0-9.6,0c0.4-1.6,0.6-3.1,1-4.5c0.1-0.3,0.9-0.4,1.3-0.4
			c6.4,0,12.8,0,19.2,0c1.3,0,2.7,0,4.3,0c-0.4,1.6-0.7,3.1-1.1,4.5c-0.1,0.2-0.7,0.4-1.1,0.4c-2.4,0-4.8,0.1-7.2,0
			c-1,0-1.4,0.2-1.6,1.2c-2.2,10.5-4.4,21-6.6,31.5c-0.2,1-0.5,1.5-1.6,1.4C350.4,171.3,349.1,171.4,347.5,171.4z"/>
		<path class="st0" d="M498.5,132.9c-0.3,1.4-0.6,2.8-0.9,4c-0.1,0.3-0.7,0.6-1.1,0.6c-2.3,0.1-4.6,0.1-7,0c-1.3-0.1-1.8,0.5-2,1.7
			c-2.1,10.3-4.4,20.6-6.5,31c-0.2,1.1-0.6,1.6-1.8,1.5c-1.2-0.1-2.5,0-3.9,0c0.3-1.3,0.5-2.4,0.7-3.5c2-9.7,4.1-19.3,6.1-29
			c0.3-1.6,0.3-1.6-1.3-1.6c-2.6,0-5.1,0-8,0c0.4-1.6,0.7-3.1,1.1-4.5c0-0.2,0.5-0.3,0.8-0.3c7.7,0,15.4,0,23.1,0
			C498,132.7,498.2,132.8,498.5,132.9z"/>
		<path d="M429.4,167.1c-0.3,1.4-0.5,2.6-0.9,3.9c-0.1,0.3-0.5,0.7-0.8,0.7c-2.2,0-4.5,0.2-6.7-0.1c-6-0.9-8.9-6.3-8.5-11.4
			c0.6-7.4,6.6-13.9,13.9-15.1c2.4-0.4,4.9-0.1,7.6-0.1c-0.3,1.4-0.6,2.8-1,4.1c-0.1,0.2-0.7,0.4-1.1,0.5c-1.5,0.1-3,0.1-4.4,0.2
			c-5.3,0.5-9.6,5.4-9.5,10.7c0.1,3.3,2.6,6,5.8,6.2C425.7,166.9,427.5,167,429.4,167.1z"/>
		<path class="st0" d="M456.9,171.2c0.2-1.2,0.4-2.3,0.6-3.3c2.4-11.4,4.9-22.9,7.3-34.3c0.2-1,0.6-1.4,1.6-1.3c1.3,0.1,2.6,0,4.1,0
			c-0.1,0.6-0.1,1-0.2,1.4c-2.5,12-5.1,24-7.6,36c-0.3,1.2-0.7,1.7-2,1.6C459.5,171.1,458.3,171.2,456.9,171.2z"/>
		<path d="M375.1,144.6c-0.1,0.9-0.3,1.5-0.4,2.5c2.6-2.4,5.5-3.3,9-2.8c-0.3,1.4-0.6,2.8-1,4.2c0,0.2-0.4,0.4-0.6,0.4
			c-2.6,0.1-4.9,0.8-6.6,2.9c-1.6,1.9-2.5,4.2-3,6.6c-0.8,3.9-1.7,7.9-2.5,11.8c-0.2,1.1-0.7,1.4-1.7,1.3c-1.2-0.1-2.4,0-3.7,0
			c0.1-0.6,0.1-1,0.2-1.4c1.7-8.1,3.5-16.2,5.2-24.4c0.2-0.8,0.5-1.1,1.3-1.1C372.5,144.6,373.7,144.6,375.1,144.6z"/>
	</g>
	<polygon class="st0" points="0,5.3 94.3,12.3 94.3,173 20.7,125.7 	"/>
	<polygon points="188.7,5.3 94.3,12.3 94.3,173 168,125.7 	"/>
	<polygon class="st1" points="0,5.3 94.3,0 188.7,5.3 94.3,12.3 	"/>
	<g>
		<path class="st0" d="M161.4,89.5c-7.8-4.4-22-12.9-22-12.9l1.7-3.2c0.2,0,0.5,0,0.7,0c4.1,0,7.3-3.3,7.3-7.3
			c0-4.1-3.3-7.3-7.3-7.3s-7.3,3.3-7.3,7.3c0,1.6,0.5,3.1,1.4,4.3l-0.3-0.2l-1.8,3.5c0,0-9.5-5.3-22.9-12.8
			c-2.8,1-12.9,29.9,13,40.4c-3.5,12.4-8.4,30.4-8.4,30.4c0.4,0,32.8-18.7,32.8-18.7s-1.5-3.4-4.8-9.6
			C151.2,102.1,158.1,95.9,161.4,89.5z M125.1,118.3c0,0,2.4-7.8,4.5-15.6c1.6,0.8,5.8,1.3,7.7,1.1c1.8,4.1,2.7,6.3,2.7,6.3
			L125.1,118.3z"/>
		<linearGradient id="SVGID_1_" gradientUnits="userSpaceOnUse" x1="105.4316" y1="93.9183" x2="160.072" y2="93.9183">
			<stop  offset="0" style="stop-color:#FFFFFF"/>
			<stop  offset="1" style="stop-color:#999999"/>
		</linearGradient>
		<path class="st2" d="M160.1,88.2c-7.8-4.4-22-12.9-22-12.9l1.7-3.2c0.2,0,0.5,0,0.7,0c4.1,0,7.3-3.3,7.3-7.3
			c0-4.1-3.3-7.3-7.3-7.3s-7.3,3.3-7.3,7.3c0,1.6,0.5,3.1,1.4,4.3l-0.3-0.2l-1.8,3.5c0,0-9.5-5.3-22.9-12.8
			c-2.8,1-12.9,29.9,13,40.4c-3.5,12.4-8.4,30.4-8.4,30.4c0.4,0,32.8-18.8,32.8-18.8s-1.5-3.4-4.8-9.6
			C149.8,100.8,156.7,94.6,160.1,88.2z M123.7,117c0,0,2.4-7.8,4.5-15.6c1.6,0.8,5.8,1.3,7.7,1.1c1.8,4.1,2.7,6.3,2.7,6.3L123.7,117
			z"/>
	</g>
	<g>
		<path class="st3" d="M146.1,27.8c8.1,0.6,14.9,3.7,20.5,9.6c3.8,4,6.3,8.8,8.1,14c0.2,0.6,0.1,0.9-0.5,1.1
			c-2.1,0.8-2.1,0.8-2.9-1.3c-2.5-6.5-6.1-12.1-12.1-15.9c-4-2.6-8.4-3.9-13.1-4.4c-0.6-0.1-1.3-0.2-1.9-0.2c-1.3-0.1-2.5-0.1-3.8,0
			c-3.6,0.4-7.2,0.8-10.6,1.9c-0.6,0.2-0.9,0.1-1.2-0.6c-0.7-2.1-0.8-2.1,1.4-2.7c2.8-0.7,5.6-1.3,8.4-1.4
			C141,27.6,143.6,27.6,146.1,27.8z"/>
		<path class="st3" d="M141.2,37.9c12.6-0.3,20.8,7,25,17.2c0.3,0.6,0.1,0.9-0.5,1.1c-2.1,0.8-2.1,0.8-3-1.2
			c-2.9-6.4-7.4-11.2-14.4-13.2c-5.3-1.5-10.7-1.1-15.9,0.5c-1.1,0.3-1.4,0.1-1.7-0.8c0-0.2-0.1-0.4-0.2-0.6
			c-0.5-0.9-0.3-1.3,0.7-1.6C134.6,38.4,138,37.7,141.2,37.9z"/>
		<path class="st3" d="M140.8,46.8c7.5,0,13.9,4.3,16.9,11.3c0.3,0.7,0.1,1-0.5,1.2c-1.9,0.8-1.9,0.9-2.9-1
			c-2.3-4.3-5.6-7.2-10.5-8.1c-3.1-0.6-6.2-0.3-9.2,0.7c-0.9,0.3-1.2,0.1-1.6-0.7c-0.7-1.9-0.8-1.9,1.1-2.4
			C136.4,47.1,138.6,46.8,140.8,46.8z"/>
		<path class="st4" d="M146.1,27.8c-2.6,0-5.1,0-7.7,0C141,27.4,143.6,27.4,146.1,27.8z"/>
		<path class="st5" d="M140.4,30.6c1.3-0.3,2.5-0.3,3.8,0C142.9,30.6,141.7,30.6,140.4,30.6z"/>
	</g>
</g>
</svg>
