<?xml version="1.0" encoding="utf-8"?>
<!-- Generator: Adobe Illustrator 22.1.0, SVG Export Plug-In . SVG Version: 6.00 Build 0)  -->
<svg version="1.1" id="Слой_1" xmlns="http://www.w3.org/2000/svg" xmlns:xlink="http://www.w3.org/1999/xlink" x="0px" y="0px"
	 viewBox="0 0 1210 444" style="enable-background:new 0 0 1210 444;" xml:space="preserve">
<style type="text/css">
	.st0{fill:#13A89E;}
	.st1{fill:#D1D2D4;}
	.st2{fill:url(#SVGID_1_);}
	.st3{fill:#13A79D;}
	.st4{fill:#4C938D;}
	.st5{fill:#4B948E;}
	.st6{fill:#1A1A1A;}
</style>
<g>
	<g>
		<polygon class="st0" points="24.5,43.6 232.3,59 232.3,413 70,308.8 		"/>
		<polygon points="440.2,43.6 232.3,59 232.3,413 394.6,308.8 		"/>
		<polygon class="st1" points="24.5,43.6 232.3,31.9 440.2,43.6 232.3,59 		"/>
		<g>
			<g>
				<path class="st0" d="M380.1,229.1c-17.1-9.7-48.5-28.4-48.5-28.4l3.8-7.1c0.5,0,1,0.1,1.6,0.1c8.9,0,16.2-7.2,16.2-16.2
					c0-8.9-7.2-16.2-16.2-16.2c-8.9,0-16.2,7.2-16.2,16.2c0,3.6,1.2,6.8,3.1,9.5l-0.6-0.3l-3.9,7.7c0,0-20.9-11.6-50.4-28.1
					c-6.1,2.2-28.4,65.8,28.6,89c-7.7,27.3-18.4,66.9-18.4,66.9c0.8,0,72.2-41.3,72.2-41.3s-3.3-7.4-10.5-21.2
					C357.5,256.9,372.7,243.3,380.1,229.1z M300,292.6c0,0,5.3-17.3,9.9-34.3c3.5,1.7,12.7,2.8,16.9,2.4c3.9,9,5.9,13.8,5.9,13.8
					L300,292.6z"/>
				<linearGradient id="SVGID_1_" gradientUnits="userSpaceOnUse" x1="256.7609" y1="238.8001" x2="377.1539" y2="238.8001">
					<stop  offset="0" style="stop-color:#FFFFFF"/>
					<stop  offset="1" style="stop-color:#999999"/>
				</linearGradient>
				<path class="st2" d="M377.2,226.1c-17.1-9.7-48.5-28.4-48.5-28.4l3.8-7.1c0.5,0,1,0.1,1.6,0.1c8.9,0,16.2-7.2,16.2-16.2
					c0-8.9-7.2-16.2-16.2-16.2c-8.9,0-16.2,7.2-16.2,16.2c0,3.6,1.2,6.8,3.1,9.5l-0.6-0.3l-3.9,7.7c0,0-20.9-11.6-50.4-28.1
					c-6.1,2.2-28.4,65.8,28.6,89c-7.7,27.3-18.4,66.9-18.4,66.9c0.8,0,72.2-41.3,72.2-41.3s-3.3-7.4-10.5-21.2
					C354.6,253.9,369.8,240.3,377.2,226.1z M297.1,289.7c0,0,5.3-17.3,9.9-34.3c3.5,1.7,12.7,2.8,16.9,2.4c3.9,9,5.9,13.8,5.9,13.8
					L297.1,289.7z"/>
			</g>
			<g>
				<path class="st3" d="M346.4,93.1c17.7,1.3,32.9,8.1,45.2,21.1c8.4,8.8,13.9,19.4,17.8,30.8c0.5,1.4,0.3,2-1.1,2.5
					c-4.7,1.8-4.6,1.8-6.4-2.9c-5.4-14.3-13.5-26.6-26.7-35c-8.8-5.7-18.5-8.7-28.9-9.6c-1.4-0.1-2.8-0.4-4.2-0.5
					c-2.8-0.3-5.6-0.3-8.4,0c-7.9,0.8-15.8,1.7-23.4,4.1c-1.4,0.5-2.1,0.2-2.6-1.3c-1.6-4.7-1.7-4.6,3.2-6
					c6.1-1.6,12.2-2.9,18.6-3.1C335.1,92.7,340.8,92.7,346.4,93.1z"/>
				<path class="st3" d="M335.6,115.3c27.7-0.6,45.8,15.5,55,37.9c0.6,1.4,0.3,1.9-1.1,2.5c-4.6,1.8-4.5,1.9-6.5-2.5
					c-6.5-14.2-16.3-24.8-31.7-29.1c-11.7-3.3-23.5-2.5-35,1c-2.3,0.7-3.2,0.3-3.6-1.9c-0.1-0.4-0.3-0.8-0.5-1.2
					c-1.1-1.9-0.6-2.9,1.6-3.5C321.1,116.5,328.4,115,335.6,115.3z"/>
				<path class="st3" d="M334.7,134.9c16.4,0,30.6,9.6,37.2,24.8c0.7,1.6,0.3,2.1-1.1,2.7c-4.3,1.8-4.2,1.9-6.4-2.1
					c-5-9.4-12.3-15.8-23.1-17.9c-6.9-1.3-13.6-0.6-20.2,1.5c-2,0.6-2.7,0.2-3.5-1.6c-1.6-4.1-1.7-4.1,2.5-5.3
					C324.9,135.7,329.7,134.9,334.7,134.9z"/>
				<path class="st4" d="M346.4,93.1c-5.7,0-11.3,0-17,0C335.1,92.3,340.8,92.2,346.4,93.1z"/>
				<path class="st5" d="M333.8,99.4c2.8-0.7,5.6-0.7,8.4,0C339.4,99.4,336.6,99.4,333.8,99.4z"/>
			</g>
		</g>
	</g>
	<g>
		<path class="st0" d="M961.7,150.1c4.1,3.6,8.1,6.7,11.5,10.4c8.6,9.5,12.2,21.1,12,33.6c-0.3,14.6-3.4,28.6-10.2,41.6
			c-10.4,19.8-26.6,32.9-47.2,41c-9.6,3.8-19.7,5.7-30,5.8c-16.9,0.2-33.7,0.2-50.6,0.3c-0.9,0-1.7-0.1-3-0.2c0.4-1.8,0.6-3.3,1-4.8
			c1.7-7.8,3.6-15.7,5.2-23.6c0.5-2.2,1.5-2.8,3.6-2.8c14.8,0.1,29.5,0.1,44.3,0c9.9-0.1,19.5-1.9,28.3-6.9
			c14.2-8.1,21.7-20.6,23.7-36.6c0.5-4.3,0.6-8.7,0.1-12.9c-1-9.8-6.6-16.3-15.4-20.2c-6.3-2.8-13-4.2-19.8-4.2
			c-14.4-0.1-28.8-0.1-43.2-0.1c-1,0-2.1-0.1-3.5-0.2c0.7-3.6,1.3-6.8,2-10.1c1.2-6,2.5-11.9,3.6-17.9c0.4-2.3,1.4-3.2,3.8-3.2
			c12.4,0.1,24.7,0.1,37.1,0c11.7-0.1,22.6-3,31.7-10.7c9.2-7.8,14.3-17.9,15.8-29.7c0.5-4.2,0.6-8.7,0-12.9
			c-1.1-7.8-5.5-13.7-12.4-17.5c-8.6-4.8-18-6.1-27.7-5.8c-15.9,0.6-29.2,6.8-39.7,18.9c-8.1,9.4-12.4,20.3-15,32.3
			c-10.4,49.6-21.1,99.2-31.6,148.8c-1.3,6-2.6,12.1-3.8,18.1c-0.3,1.6-1.1,2.2-2.7,2.2c-9.5,0-19.1,0-28.6,0c-2.2,0-2.4-1.1-2-2.9
			c4.7-21.9,9.3-43.9,14-65.8c7.8-36.5,15.4-73.1,23.3-109.6c2.9-13.4,9.3-25.4,18.1-35.9c14.5-17.4,32.2-30.2,54.7-35.2
			c19.9-4.4,39.6-3.2,58.4,5c23.7,10.3,33.2,31.3,29.2,55.5c-1.1,6.8-3.2,13.4-5.2,19.9c-4.4,14-13.3,24.5-25.2,32.8
			C964.7,147.7,963.2,149,961.7,150.1z"/>
		<path class="st0" d="M698,31.7c-0.5,2.4-0.8,4.6-1.3,6.7c-11.3,53.2-22.6,106.4-33.9,159.7c-1.8,8.6-2.1,17.4-0.5,26.1
			c2.8,15.2,12.6,24.5,27.9,26.8c20.6,3.1,37.4-3.8,51.4-18.9c10-10.8,15.7-23.5,18.7-37.7c10.1-48.6,20.5-97.1,30.7-145.7
			c1-4.7,2-9.3,2.9-14c0.4-2.3,1.3-3.3,3.8-3.2c9,0.1,18,0,27,0.1c3.3,0,3.4,0.2,2.7,3.3c-5.3,25.1-10.7,50.3-16,75.4
			c-6.3,29.6-12.2,59.4-19.1,88.9c-9,38.2-32.6,64.1-69.1,77.8c-19.3,7.3-39.4,8.3-58.9,0.6c-22.5-9-34.7-26.3-37.2-50.5
			c-1.2-12,0.9-23.6,3.4-35.2c11-52.2,22.2-104.4,33.3-156.6c0.6-2.8,1.6-3.9,4.6-3.8c8.7,0.2,17.3,0.1,26,0.1
			C695.5,31.5,696.6,31.6,698,31.7z"/>
		<path class="st0" d="M1044.3,138.6c40,0,79.6,0,119.7,0c-0.8,3.7-1.4,7-2.1,10.2c-1.3,6.1-2.7,12.1-3.8,18.2
			c-0.5,2.7-1.6,3.5-4.4,3.5c-37.2-0.1-74.4-0.1-111.6-0.1c-1,0-2-0.2-2.9,0.1c-0.8,0.3-1.8,1.1-1.9,1.8c-1.6,14.1-0.2,28,5.9,40.9
			c10.9,23.3,29.3,36.2,55.1,37.6c12.7,0.7,25.4,0.4,38.1,0.5c0.9,0,1.9,0.1,3.1,0.1c-0.1,1-0.1,1.8-0.3,2.5
			c-1.9,8.7-3.8,17.4-5.6,26.2c-0.4,1.9-1.3,2.7-3.2,2.6c-13.9-0.4-27.8,0.1-41.6-1.1c-40.9-3.7-78.3-33.8-85.5-75.2
			c-3.2-18.6-1.8-36.9,3.4-55c7.5-25.6,19.9-48.5,38.7-67.6c20.5-20.7,45.2-34.2,73-42.3c15.1-4.4,30.5-6.7,46.3-6.4
			c5.9,0.1,11.8,0.1,17.8,0c2.3,0,3.2,0.4,2.6,3c-2,8.6-3.8,17.2-5.6,25.9c-0.4,1.9-1.3,2.6-3.2,2.5c-8.4-0.1-16.8-0.1-25.2,0
			c-28.9,0.1-54.3,9.7-76.4,28.3c-13.1,11-23.7,24-29.6,40.3C1045,136.1,1044.8,137.2,1044.3,138.6z"/>
		<path class="st0" d="M640.2,35.5c-0.7,3.2-1.2,6.1-1.9,9c-1.4,6.3-2.8,12.6-4,18.9c-0.5,2.5-1.6,3.3-4.1,3.2
			c-8.1-0.2-16.3-0.2-24.4,0c-43.7,0.7-76.2,20.7-98.7,57.6c-9.1,15-14.1,31.6-15.8,49.1c-1.2,12.2-0.4,24.4,3.8,36.1
			c8,22.2,24.3,34.7,46.8,39.3c8.3,1.7,17,2.2,25.5,2.7c7.8,0.4,15.5,0.1,23.3,0.1c1,0,2.1,0.1,3.5,0.2c-0.5,2.4-0.9,4.5-1.3,6.6
			c-1.6,7.3-3.2,14.5-4.6,21.8c-0.4,2.2-1.5,2.8-3.6,2.8c-13.3-0.2-26.7,0.1-40-0.6c-21.5-1.2-41.3-7.5-58-21.8
			c-16.7-14.3-26.6-32.5-30.2-54.2c-4.3-26.1-0.2-51,10.4-75c11.9-27.2,31.4-48,55.3-65c18.2-12.9,37.6-23.3,59.6-27.8
			c8.7-1.8,17.6-2.6,26.5-3c9.3-0.5,18.7-0.1,28.1-0.1C637.6,35.2,638.7,35.4,640.2,35.5z"/>
	</g>
	<g>
		<path class="st6" d="M907.6,389.3c-0.9,3.9-1.8,7.8-2.7,11.7c-0.1,0.5-0.5,1-0.9,1.3c-9.6,6.7-24.4,7.2-33-1.1
			c-6.1-5.9-7.9-13.3-6.9-21.2c1.9-14.1,9-24.8,22.2-30.8c7.6-3.5,15.7-3.9,23.7-2.3c12.4,2.5,18.8,12.9,16.2,25.8
			c-2.1,10.3-4.4,20.6-6.5,30.9c-0.4,2-1.3,2.6-3.2,2.6c-2.8-0.1-5.6,0-8.9,0c0.5-2.6,0.9-4.9,1.4-7.1c1.9-8.8,3.8-17.7,5.6-26.5
			c1.6-8.3-3.2-14.4-11.6-15.4c-17-2.1-28.9,12.1-27.2,27.5c0.7,6.1,5.9,11.1,12,11.9c6.4,0.8,11.7-1.4,16.5-5.4
			c0.9-0.7,1.7-1.4,2.6-2.1C907.2,389,907.4,389.1,907.6,389.3z"/>
		<path class="st6" d="M1008.1,407.2c1-4.7,1.9-8.9,2.7-13.2c0.5-2.6,0.9-5.2,0.8-7.8c0-3.2-1.8-5.1-5-5.4c-4-0.3-8.1-0.3-12.1-0.5
			c-1.7-0.1-1.9,1-2.2,2.3c-1.5,7.3-3.2,14.6-4.6,21.9c-0.4,2-1.1,2.9-3.3,2.7c-2.8-0.2-5.6,0-8.7,0c0.6-3.2,1.1-5.9,1.7-8.6
			c5.3-24.7,10.6-49.4,15.8-74.1c0.5-2.5,1.5-3.4,4-3.1c2.5,0.2,5,0,8.1,0c-3.5,16.3-6.8,32.1-10.3,48.4c5.3,0.4,10.1,0,13.6-4.3
			c4.1-5,8.2-10.1,12.2-15.2c1.1-1.5,2.4-2.1,4.2-2c3.2,0.1,6.4,0,9.6,0c0.2,0.3,0.3,0.5,0.5,0.8c-6.7,7.8-13.3,15.6-20,23.5
			c-0.1,0,0.5,0.3,1.1,0.5c5.7,2.3,8.7,7.2,7.6,13.2c-1.1,6.4-2.6,12.7-4,19c-0.2,0.7-1,1.6-1.6,1.7
			C1015,407.3,1011.8,407.2,1008.1,407.2z"/>
		<path class="st6" d="M790.3,407.2c5.3-25.1,10.6-49.8,15.9-74.8c-7.2,0-13.9,0-21.2,0c0.8-3.6,1.4-6.9,2.3-10
			c0.2-0.6,1.9-0.9,2.9-0.9c14-0.1,28.1,0,42.1,0c3,0,5.9,0,9.5,0c-0.8,3.6-1.4,6.8-2.4,10c-0.1,0.5-1.6,0.9-2.4,0.9
			c-5.3,0.1-10.5,0.1-15.8,0c-2.1-0.1-3.1,0.5-3.5,2.7c-4.8,23.1-9.8,46.1-14.6,69.2c-0.5,2.2-1.2,3.2-3.6,3
			C796.7,407,793.8,407.2,790.3,407.2z"/>
		<path class="st0" d="M1122.1,322.1c-0.7,3.1-1.2,6-2.1,8.9c-0.2,0.6-1.6,1.3-2.4,1.3c-5.1,0.1-10.2,0.3-15.3,0
			c-3-0.2-3.9,1-4.5,3.7c-4.7,22.7-9.6,45.3-14.3,68c-0.5,2.4-1.4,3.5-4,3.3c-2.7-0.2-5.4,0-8.5,0c0.6-2.9,1-5.3,1.5-7.8
			c4.5-21.2,9-42.4,13.5-63.6c0.7-3.4,0.7-3.5-3-3.5c-5.6,0-11.2,0-17.5,0c0.8-3.5,1.5-6.7,2.4-9.9c0.1-0.4,1.2-0.8,1.8-0.8
			c16.9,0,33.9,0,50.8,0C1120.9,321.7,1121.3,321.9,1122.1,322.1z"/>
		<path class="st6" d="M970.2,397.1c-0.7,3.1-1.2,5.8-1.9,8.5c-0.2,0.6-1.1,1.5-1.7,1.5c-4.9,0.1-9.9,0.5-14.7-0.2
			c-13.2-2-19.6-13.7-18.7-25c1.3-16.3,14.4-30.6,30.5-33.1c5.3-0.8,10.8-0.1,16.7-0.1c-0.7,3.2-1.3,6.1-2.1,9c-0.2,0.5-1.5,1-2.3,1
			c-3.2,0.2-6.5,0.2-9.7,0.5c-11.7,1.1-21.1,11.9-20.8,23.6c0.2,7.2,5.6,13.1,12.8,13.7C962.1,396.7,965.9,396.8,970.2,397.1z"/>
		<path class="st0" d="M1030.5,407.2c0.5-2.7,0.9-5,1.4-7.3c5.4-25.1,10.8-50.3,16.1-75.4c0.4-2.1,1.3-3,3.5-2.9c2.9,0.2,5.8,0,9,0
			c-0.1,1.2-0.2,2.2-0.4,3.1c-5.6,26.4-11.2,52.7-16.7,79.1c-0.6,2.7-1.6,3.7-4.4,3.5C1036.3,407,1033.6,407.2,1030.5,407.2z"/>
		<path class="st6" d="M851,348.4c-0.3,1.9-0.6,3.3-0.9,5.4c5.8-5.3,12-7.3,19.7-6.2c-0.7,3.1-1.3,6.2-2.1,9.2
			c-0.1,0.4-0.9,0.8-1.4,0.9c-5.7,0.2-10.7,1.8-14.5,6.3c-3.5,4.2-5.5,9.1-6.6,14.5c-1.8,8.7-3.8,17.3-5.5,26
			c-0.5,2.4-1.5,3-3.7,2.9c-2.6-0.2-5.2,0-8.2,0c0.2-1.2,0.2-2.2,0.4-3.1c3.8-17.8,7.7-35.7,11.4-53.5c0.4-1.7,1-2.4,2.8-2.3
			C845.2,348.4,847.9,348.4,851,348.4z"/>
	</g>
</g>
</svg>
